<?xml version="1.0" standalone="no"?>
<!DOCTYPE svg PUBLIC "-//W3C//DTD SVG 20010904//EN"
 "http://www.w3.org/TR/2001/REC-SVG-20010904/DTD/svg10.dtd">
<svg version="1.0" xmlns="http://www.w3.org/2000/svg"
 width="650.000000pt" height="650.000000pt" viewBox="0 0 650.000000 650.000000"
 preserveAspectRatio="xMidYMid meet">

<g transform="translate(0.000000,650.000000) scale(0.100000,-0.100000)"
fill="#FFFFFF" stroke="none">
<path d="M1990 5688 c-27 -44 -57 -125 -81 -218 -30 -113 -38 -417 -14 -524
21 -95 57 -195 92 -256 32 -55 124 -153 171 -182 l35 -21 -27 -20 c-34 -25
-74 -103 -87 -170 -10 -57 1 -139 25 -187 12 -25 12 -27 -5 -23 -11 3 -28 -6
-45 -23 -22 -24 -25 -36 -21 -70 4 -40 2 -43 -49 -84 -30 -24 -54 -47 -54 -53
0 -9 39 -5 87 9 l22 6 -24 -59 c-25 -58 -34 -156 -16 -167 5 -3 12 13 15 37 4
23 18 60 32 82 19 31 24 34 20 15 -14 -58 -18 -217 -7 -257 12 -43 31 -58 31
-25 0 9 4 23 9 30 5 8 18 -30 36 -105 15 -64 36 -142 46 -172 11 -30 19 -58
19 -63 0 -4 -37 -8 -82 -8 -97 -1 -152 -12 -230 -47 -59 -26 -75 -46 -35 -43
12 1 40 2 62 1 l40 -2 -27 -14 c-23 -13 -39 -13 -128 0 -56 9 -145 14 -198 13
l-97 -3 155 -13 c85 -7 168 -16 183 -19 l28 -6 -33 -19 c-36 -22 -108 -88
-108 -99 0 -5 26 3 58 17 l57 26 -40 -41 c-39 -41 -40 -41 -115 -42 l-75 -1
65 -10 c35 -5 65 -10 66 -11 1 -1 -13 -35 -33 -75 -19 -40 -37 -92 -40 -115
l-5 -42 34 50 33 49 7 -99 c11 -168 42 -248 146 -381 80 -102 237 -183 412
-214 36 -6 150 -14 254 -17 l189 -6 -6 -141 c-5 -147 -19 -211 -62 -296 -29
-58 -108 -146 -149 -167 -17 -8 -80 -48 -141 -88 -177 -117 -419 -244 -604
-316 -85 -32 -189 -106 -252 -177 -86 -97 -270 -399 -319 -522 -24 -60 -38
-210 -26 -274 l7 -36 2014 0 2014 0 7 45 c19 133 -56 494 -140 670 -46 97
-111 181 -197 255 -131 113 -251 181 -429 245 -238 85 -431 203 -463 283 -24
60 -38 156 -32 214 13 116 12 114 55 127 54 16 97 55 111 99 10 36 14 38 102
65 51 16 130 47 176 70 142 69 261 200 299 329 l17 57 55 -31 c30 -18 87 -52
125 -78 95 -63 107 -68 60 -27 -22 20 -84 62 -138 94 -80 48 -96 61 -92 78 12
49 16 196 6 254 -6 36 -9 66 -7 68 10 10 268 -21 399 -47 155 -32 194 -36 167
-21 -37 22 -335 73 -502 87 -43 3 -78 10 -78 15 0 5 7 9 15 9 8 0 15 4 15 9 0
9 -75 79 -106 98 -18 11 -18 12 5 12 l24 1 -26 20 c-14 12 -46 30 -71 41 -44
19 -45 21 -31 42 8 12 26 54 40 92 15 39 43 94 62 124 70 105 87 183 86 391
-1 180 0 189 18 179 20 -10 59 -12 59 -3 0 4 -13 22 -30 40 -35 40 -58 111
-70 219 -5 44 -14 120 -19 169 -10 81 -14 93 -43 124 -27 28 -29 32 -10 22 36
-18 37 -6 7 56 l-28 57 31 56 c46 84 71 170 78 263 6 90 1 122 -60 395 -19 88
-39 193 -42 232 -4 39 -9 71 -11 71 -3 0 -23 -15 -46 -33 -23 -19 -87 -65
-142 -102 -199 -137 -305 -225 -371 -310 -48 -63 -96 -151 -108 -198 l-6 -27
-73 7 c-39 5 -94 8 -120 8 -45 0 -48 1 -42 23 10 39 -5 46 -36 16 l-29 -28 0
45 c0 50 -9 89 -20 89 -4 0 -14 -14 -21 -32 -14 -34 -66 -98 -80 -98 -4 0 1
19 11 43 19 41 28 165 14 180 -4 3 -23 -20 -43 -53 -42 -69 -104 -146 -129
-159 -17 -9 -18 -4 -15 52 4 62 4 62 -14 37 -36 -50 -87 -102 -116 -116 -28
-15 -29 -15 -22 5 8 25 7 25 -33 6 -43 -22 -172 -45 -248 -45 -62 0 -64 1 -80
33 -49 94 -128 193 -252 314 -75 73 -139 130 -144 127 -4 -3 -8 -24 -8 -47 0
-41 0 -41 -16 -19 -9 13 -71 60 -138 104 -66 44 -138 96 -159 116 -44 42 -97
139 -97 176 0 39 -18 40 -40 4z m30 -163 c13 -82 47 -164 107 -258 l43 -67
-28 6 c-15 3 -40 10 -56 15 -16 5 -31 7 -33 5 -7 -7 36 -107 68 -159 19 -29
58 -78 88 -109 44 -48 50 -58 33 -58 -51 0 -53 -10 -13 -63 34 -45 111 -186
111 -202 0 -8 -49 5 -99 26 -24 11 -46 17 -48 15 -8 -8 19 -51 60 -93 l40 -42
-34 -20 c-44 -27 -47 -27 -104 11 -98 65 -190 214 -232 377 -20 80 -24 119
-24 233 1 214 21 334 83 486 l13 34 7 -34 c3 -18 11 -64 18 -103z m68 -17 c13
-15 58 -49 100 -74 121 -75 111 -54 114 -235 2 -97 7 -158 13 -157 5 2 19 41
32 88 12 47 27 99 33 115 l12 30 40 -45 c33 -37 39 -40 34 -20 -3 14 -2 40 2
58 l7 33 33 -34 32 -33 -20 -95 c-23 -110 -38 -339 -23 -339 6 0 20 28 33 63
26 72 83 188 112 229 20 28 21 29 40 11 39 -35 39 -47 3 -126 -34 -73 -43
-107 -28 -107 4 0 33 25 64 56 l57 57 27 -42 c14 -23 31 -54 38 -68 11 -25 12
-26 100 -19 87 7 163 18 202 31 19 6 19 6 3 -8 -26 -21 -22 -30 10 -23 36 9
126 71 159 110 24 29 25 29 18 6 -16 -52 -37 -82 -68 -95 -18 -8 -26 -14 -19
-15 52 -1 171 85 237 172 l48 63 -7 -40 c-12 -68 -57 -148 -94 -167 -46 -23
-52 -31 -17 -23 85 20 149 62 187 120 l19 30 -6 -64 -7 -64 36 22 c63 39 31
-4 -36 -49 -33 -22 -53 -40 -45 -40 8 0 39 17 68 37 52 36 56 37 139 35 112
-2 251 -38 399 -102 137 -61 171 -71 116 -36 -43 28 -150 75 -255 112 -72 25
-73 26 -38 107 11 26 26 47 33 47 23 0 144 -40 225 -75 89 -38 95 -34 61 34
-26 50 -92 108 -158 138 l-55 25 35 36 c31 31 39 34 72 28 20 -4 75 -27 122
-52 47 -24 89 -41 94 -38 26 15 -41 118 -100 154 -22 14 -40 27 -41 30 0 3 19
18 42 34 l41 30 59 -33 c32 -17 63 -29 69 -25 15 9 4 59 -21 94 l-20 28 66 47
c47 33 65 41 61 28 -53 -181 -59 -214 -62 -318 -4 -110 -4 -110 -34 -130 -17
-11 -30 -23 -31 -27 0 -10 30 2 63 25 16 10 30 17 33 15 8 -9 -16 -108 -37
-150 -40 -79 -58 -98 -92 -98 -24 0 -28 -3 -17 -10 8 -5 36 -10 63 -10 l47 0
-25 -38 c-13 -20 -27 -51 -31 -69 -6 -29 -8 -31 -37 -22 -40 11 -47 11 -47 -1
0 -5 6 -10 14 -10 35 0 158 -74 200 -121 51 -57 59 -78 20 -52 -15 9 -36 18
-48 18 -11 0 -68 25 -126 54 -58 30 -175 77 -261 105 -86 29 -164 60 -173 69
-26 25 -61 32 -168 31 -54 0 -98 3 -98 7 0 11 92 43 140 49 71 8 53 25 -32 28
-79 3 -175 -16 -232 -45 -17 -9 -62 -19 -101 -24 -61 -7 -80 -5 -150 18 -65
21 -105 27 -217 31 -152 5 -183 -7 -65 -26 39 -6 92 -17 117 -25 43 -12 40
-13 -75 -12 -117 0 -225 -17 -225 -36 0 -5 8 -9 18 -10 9 0 -28 -11 -83 -24
-79 -18 -400 -115 -475 -143 -13 -5 -13 -3 -1 12 13 16 12 16 -11 5 -29 -13
-57 2 -93 50 -18 24 -18 24 1 17 10 -4 50 -14 87 -23 51 -11 71 -13 80 -4 8 8
3 11 -21 11 -20 0 -32 5 -32 13 0 25 -78 174 -111 212 l-34 38 42 -5 c23 -3
56 -16 73 -28 51 -36 34 -14 -55 72 -97 92 -213 255 -194 272 10 10 118 -22
154 -46 22 -14 41 -25 42 -24 1 1 -28 33 -65 72 -92 94 -159 226 -176 345 l-6
44 17 -25 c10 -13 28 -37 41 -52z m2522 -100 c0 -15 16 -89 36 -165 62 -238
66 -261 60 -353 -3 -47 -11 -103 -17 -125 -14 -53 -80 -195 -90 -195 -5 0 -32
18 -61 40 -29 22 -56 40 -60 40 -31 0 19 121 65 159 29 23 20 33 -23 26 l-40
-7 30 49 c47 76 88 261 60 278 -5 3 -16 -7 -25 -22 -15 -27 -16 -25 -11 49 8
138 75 337 76 226z m-1165 -919 c28 -18 68 -47 91 -65 23 -19 46 -34 53 -34 7
0 42 29 78 65 59 59 69 65 107 65 69 0 74 -13 19 -53 -26 -20 -79 -67 -117
-106 l-69 -69 -69 59 c-38 33 -101 80 -138 106 -38 25 -67 50 -64 54 11 18 62
8 109 -22z m-42 -61 c32 -22 90 -66 127 -99 38 -32 71 -59 75 -59 3 0 38 32
78 71 92 91 187 159 221 159 15 0 57 -8 94 -17 l67 -17 -54 -23 c-85 -38 -231
-148 -231 -175 0 -5 28 16 63 47 68 61 203 135 247 135 33 0 243 -71 320 -108
60 -30 94 -72 129 -160 l21 -52 -49 0 c-48 0 -50 1 -81 49 -68 107 -157 161
-276 169 -56 3 -80 0 -116 -16 -61 -27 -121 -82 -164 -152 l-35 -58 -263 -7
c-145 -4 -273 -4 -285 0 -12 4 -57 42 -99 84 -97 98 -150 121 -280 121 -74 0
-96 -4 -140 -26 -59 -29 -101 -74 -137 -144 -13 -27 -29 -51 -34 -54 -5 -3 -9
-21 -9 -38 0 -18 -5 -53 -11 -78 -6 -25 -11 -63 -11 -85 -1 -71 -7 -72 -116
-7 l-99 59 2 39 c4 50 37 178 61 235 16 36 28 48 61 61 l41 16 -30 -36 c-52
-63 -32 -60 28 4 56 60 59 61 187 102 72 23 176 53 232 68 100 26 103 27 147
10 67 -26 160 -89 216 -148 54 -57 70 -51 18 7 -38 44 -140 118 -199 144 -49
22 -52 21 76 45 80 15 97 9 208 -66z m814 -119 c51 -24 118 -90 143 -139 l19
-37 -172 -6 c-95 -4 -212 -7 -260 -7 l-88 0 22 39 c12 22 43 61 68 86 93 94
167 112 268 64z m-1377 -17 c-50 -34 -102 -86 -126 -128 -21 -35 -59 -62 -72
-50 -5 6 34 77 55 101 27 31 84 71 118 83 44 15 53 13 25 -6z m224 -15 c56
-26 123 -80 157 -129 l20 -28 -266 0 -266 0 23 41 c25 45 83 100 138 130 45
25 120 20 194 -14z m1251 3 c42 -29 91 -83 114 -127 10 -20 9 -23 -8 -23 -13
0 -29 18 -49 54 -17 29 -50 70 -73 90 -52 44 -44 47 16 6z m224 1 c20 -11 42
-25 48 -33 21 -27 61 -255 63 -355 0 -7 -29 17 -65 52 -35 36 -69 65 -75 65
-5 0 -10 7 -10 16 0 11 6 14 21 9 30 -10 67 2 74 24 3 11 -3 40 -15 65 -11 25
-20 49 -20 54 0 4 -15 34 -34 65 -19 31 -32 57 -30 57 3 0 22 -9 43 -19z
m-2139 -44 c0 -2 -11 -36 -25 -76 -13 -40 -30 -99 -36 -132 -6 -33 -15 -58
-19 -57 -3 2 -36 19 -73 38 -66 34 -67 36 -67 75 l0 41 103 56 c95 53 117 63
117 55z m2271 -48 c4 -8 14 -58 22 -111 8 -54 24 -116 35 -138 22 -45 21 -47
-16 -23 -24 16 -26 16 -14 1 7 -9 16 -52 18 -95 l5 -78 -30 55 c-26 47 -30 66
-31 135 -1 71 -12 151 -36 265 l-7 35 23 -16 c13 -9 27 -22 31 -30z m-2011
-198 c-1 -15 -16 -43 -35 -66 -35 -40 -35 -40 -35 -13 0 15 5 49 11 77 10 48
11 50 35 39 17 -8 24 -19 24 -37z m50 20 c0 -5 -7 -14 -15 -21 -13 -10 -15 -9
-15 9 0 12 6 21 15 21 8 0 15 -4 15 -9z m819 -68 c-2 -127 -14 -231 -23 -208
-34 84 -76 154 -123 205 -36 39 -50 61 -42 64 8 2 21 7 29 9 8 3 48 6 88 6
l72 1 -1 -77z m161 -95 l0 -173 -70 0 -70 -1 0 52 c0 28 3 106 7 172 l6 122
64 0 63 0 0 -172z m100 167 c0 -3 -11 -48 -25 -101 -14 -53 -25 -109 -25 -125
0 -15 -4 -30 -9 -33 -4 -3 -9 55 -10 129 l-2 135 35 0 c20 0 36 -2 36 -5z
m104 -1 c13 -5 8 -15 -27 -53 -24 -26 -57 -66 -72 -89 -15 -23 -29 -42 -30
-42 -4 0 4 35 27 118 20 71 22 72 54 72 18 0 40 -3 48 -6z m-1757 -94 c16 -50
88 -189 94 -183 4 5 -1 42 -12 83 -10 41 -19 78 -19 82 0 4 26 -4 58 -17 l57
-23 6 -174 c3 -96 11 -183 16 -193 6 -11 13 -38 16 -60 4 -22 9 -58 13 -79 3
-21 23 -92 44 -158 l38 -118 -37 7 c-57 11 -212 8 -261 -6 -25 -7 -63 -21 -84
-32 -34 -16 -45 -17 -85 -7 l-45 11 39 18 40 17 -28 11 c-16 6 -40 11 -55 12
-20 1 -11 6 33 21 42 14 91 20 162 21 61 1 103 6 103 12 0 6 -10 39 -21 75
-11 36 -36 126 -55 199 l-34 135 23 24 c14 16 17 23 7 20 -8 -2 -30 -24 -49
-49 l-34 -44 5 120 c3 94 9 130 26 168 11 26 18 47 14 47 -11 -1 -45 -32 -71
-65 -22 -29 -23 -29 -16 -5 4 14 16 45 26 69 11 24 18 46 16 48 -2 2 -20 -4
-40 -12 -51 -21 -51 -20 -5 24 39 36 43 37 76 28 19 -6 36 -18 39 -27z m296
-104 c48 -18 90 -35 93 -38 3 -3 -2 -30 -10 -59 -41 -137 -2 -337 87 -445 14
-17 35 -72 51 -134 16 -58 31 -113 34 -124 4 -16 2 -17 -16 -7 -22 12 -67 113
-102 229 -12 40 -24 71 -27 69 -5 -5 51 -182 77 -242 17 -39 17 -42 1 -38 -10
2 -31 41 -55 101 -53 135 -57 143 -50 107 4 -16 21 -67 39 -112 32 -79 33 -92
9 -75 -12 8 -67 139 -79 187 -4 17 -9 25 -12 18 -2 -6 11 -52 30 -102 19 -50
31 -91 26 -91 -13 0 -30 38 -60 130 -15 47 -28 79 -28 73 -1 -7 12 -53 28
-102 19 -61 24 -88 15 -84 -29 11 -104 286 -129 473 -12 88 -21 300 -12 300 1
0 41 -15 90 -34z m1251 -196 c31 -11 34 -36 6 -43 -20 -5 -20 -10 -14 -111 5
-77 4 -106 -5 -106 -6 0 -12 18 -13 43 l-1 42 -7 -45 c-7 -44 -7 -44 -10 -10
l-3 35 -5 -35 c-4 -29 -6 -32 -12 -15 -8 19 -9 19 -9 -2 -1 -33 -21 -28 -22 5
l-2 27 -5 -30 c-4 -26 -5 -28 -12 -10 -7 17 -9 17 -9 3 -1 -10 -6 -18 -12 -18
-9 0 -10 28 -5 100 5 67 3 100 -4 100 -5 0 -10 14 -10 30 0 22 6 33 23 40 30
12 100 12 131 0z m36 -206 c0 -12 3 -29 6 -38 4 -12 0 -16 -15 -16 -18 0 -21
6 -21 38 0 28 4 39 15 39 9 0 15 -10 15 -23z m-190 -34 c0 -22 -4 -40 -10 -40
-11 0 -14 63 -3 73 11 12 13 8 13 -33z m-31 -7 c0 -29 -2 -33 -8 -18 -7 18 -4
55 5 55 2 0 4 -17 3 -37z m256 -3 c3 -5 1 -10 -4 -10 -6 0 -11 5 -11 10 0 6 2
10 4 10 3 0 8 -4 11 -10z m-275 -25 c0 -8 -4 -15 -10 -15 -5 0 -7 7 -4 15 4 8
8 15 10 15 2 0 4 -7 4 -15z m338 -49 c66 -34 29 -98 -75 -132 -78 -25 -225
-25 -271 0 -28 15 -33 22 -30 49 3 28 10 36 58 60 31 15 76 31 100 37 65 13
179 6 218 -14z m-1043 -231 c8 -38 18 -80 21 -93 l6 -22 -43 19 c-43 19 -44
22 -65 100 -12 43 -25 93 -29 110 l-7 32 51 -38 c47 -35 51 -41 66 -108z
m1789 113 c-3 -13 -19 -48 -35 -79 l-28 -56 54 -17 c64 -20 75 -32 37 -39 -30
-6 -107 15 -107 30 0 21 68 183 76 183 6 0 7 -10 3 -22z m-70 -80 c-14 -35
-28 -68 -31 -75 -5 -13 -34 -6 -45 11 -5 7 -8 5 -8 -4 0 -13 -1 -13 -10 0 -6
10 -10 11 -10 3 0 -7 -4 -13 -10 -13 -5 0 -2 19 7 43 13 34 25 47 67 68 28 14
54 27 58 28 3 0 -5 -27 -18 -61z m-1204 45 c-1 -44 -12 -51 -93 -63 -94 -14
-213 -49 -306 -91 -36 -16 -68 -26 -71 -22 -7 8 -40 133 -40 152 0 5 20 1 45
-10 24 -11 79 -25 122 -31 65 -9 91 -8 157 5 43 9 100 27 125 40 52 27 61 30
61 20z m860 -65 c30 -5 79 -7 108 -4 56 7 58 5 42 -40 -8 -22 -27 -37 -73 -59
l-62 -30 -54 37 c-30 21 -61 38 -69 38 -9 0 -12 6 -8 16 3 9 6 27 6 41 0 22 3
24 27 18 15 -3 52 -11 83 -17z m217 -24 c-9 -26 -21 -40 -35 -42 -19 -3 -20
-1 -9 33 6 21 20 40 32 45 11 4 21 7 23 5 1 -1 -4 -19 -11 -41z m-1807 -28
c58 -21 147 -57 199 -82 102 -48 118 -53 83 -26 l-24 18 79 36 c91 42 192 73
283 87 98 16 110 15 110 -12 0 -34 54 -113 97 -141 21 -14 82 -37 136 -52 106
-29 147 -60 147 -112 l1 -27 13 30 c19 45 79 92 173 138 46 22 104 58 129 80
l45 40 42 -19 c23 -11 71 -48 106 -83 63 -63 69 -64 25 -4 -13 17 -24 34 -24
36 0 2 28 17 63 33 52 23 76 28 147 28 73 0 94 -4 147 -28 39 -18 79 -46 105
-75 l43 -46 -125 -8 c-129 -8 -345 -38 -413 -58 -69 -19 -34 -19 63 1 111 22
291 40 406 40 78 0 81 -1 94 -27 24 -53 25 -252 1 -291 -5 -9 -28 -3 -88 22
-170 72 -348 114 -553 131 -127 11 -89 -5 51 -21 212 -25 362 -63 511 -131
l76 -35 -18 -52 c-9 -29 -28 -72 -40 -96 -34 -68 -153 -180 -235 -222 -71 -36
-235 -98 -261 -98 -27 0 -14 25 23 45 43 23 163 137 163 155 0 6 -33 -19 -74
-57 -40 -37 -87 -76 -104 -86 l-30 -17 -12 37 c-15 47 -50 102 -106 169 -24
28 -41 54 -37 57 3 4 26 7 50 7 42 0 43 -1 43 -32 l1 -33 19 24 c11 13 20 36
20 52 0 31 -17 49 -22 23 -2 -13 -12 -9 -48 21 -88 75 -213 115 -353 115 -102
0 -166 -15 -310 -70 -202 -78 -375 -108 -449 -77 -29 12 -35 19 -31 36 9 34
-7 24 -22 -13 -15 -34 -11 -66 6 -66 5 0 9 9 9 20 0 18 4 18 68 -10 37 -16
106 -35 152 -44 111 -20 347 -38 402 -30 l43 6 -25 -21 -25 -20 59 20 c33 10
65 19 71 19 7 0 49 -69 93 -152 l81 -153 -37 -7 c-57 -11 -236 -9 -358 3 -236
23 -432 77 -718 199 -54 22 -101 39 -104 36 -5 -6 18 -17 163 -78 74 -31 78
-33 47 -36 -44 -4 -428 36 -512 53 -36 8 -85 21 -110 30 -152 54 -284 193
-332 348 -28 93 -22 225 13 312 l25 60 53 -2 c71 -3 355 -74 489 -122 59 -21
158 -61 220 -89 61 -28 112 -47 112 -42 0 11 -243 115 -364 157 -109 37 -343
97 -422 108 -76 11 -79 15 -46 61 16 21 45 52 66 67 l37 28 67 -22 c155 -51
403 -168 510 -241 23 -16 42 -24 42 -18 0 35 -327 197 -575 284 -20 7 -20 7 0
18 54 31 103 38 240 34 131 -3 147 -6 245 -40z m-595 3 l39 -11 -31 -27 c-17
-14 -46 -46 -64 -71 -32 -43 -36 -45 -74 -40 l-40 5 53 53 c28 29 52 55 52 57
0 9 -41 5 -61 -5 -33 -18 -21 -1 19 24 43 29 53 30 107 15z m2724 -119 c18
-13 20 -18 10 -22 -8 -3 -31 12 -54 35 -37 38 -38 39 -9 23 17 -10 41 -26 53
-36z m-2843 -50 l22 0 -25 -67 c-71 -196 -24 -402 127 -553 95 -94 173 -133
348 -171 80 -18 82 -19 27 -13 -86 8 -200 40 -270 77 -90 47 -203 164 -248
257 -63 128 -84 265 -56 363 6 22 9 41 6 43 -2 2 -17 -6 -33 -18 l-29 -23 25
40 c13 22 29 48 34 58 7 11 18 16 31 13 11 -3 30 -6 41 -6z m1943 -405 c46 -6
162 -48 194 -71 18 -12 18 -13 -2 -24 -18 -9 -22 -7 -31 15 -7 18 -17 25 -35
25 -15 0 -36 5 -48 12 -38 20 -168 36 -227 28 -110 -16 -160 -31 -300 -92 -27
-12 -53 -18 -57 -15 -4 4 -13 -7 -21 -25 l-13 -33 -20 24 c-11 13 -16 27 -12
31 4 4 42 19 83 33 41 14 115 40 163 57 126 45 195 52 326 35z m61 -116 c81
-40 186 -144 224 -221 24 -50 27 -96 5 -82 -5 3 -6 -2 -3 -10 3 -9 10 -16 15
-16 6 0 5 -10 -2 -21 -6 -12 -7 -19 -1 -15 20 12 23 -28 4 -54 -27 -36 -73
-60 -129 -66 -46 -6 -50 -4 -85 31 -20 21 -68 97 -106 169 -94 180 -117 214
-156 233 -34 16 -66 13 -66 -6 0 -6 6 -8 14 -5 8 3 23 1 32 -4 22 -12 -83 -25
-166 -20 l-55 3 50 31 c100 63 181 69 274 20 28 -14 51 -22 51 -16 0 12 -70
60 -87 60 -19 0 -16 18 5 24 38 11 120 -5 182 -35z m-1048 -386 l1 -78 6 72
c6 77 18 102 28 63 l7 -25 6 25 c7 24 7 24 18 -10 9 -28 11 -29 8 -7 -2 15 1
27 6 27 6 0 56 -16 112 -35 175 -60 306 -78 584 -81 l243 -3 46 -41 c27 -23
56 -40 70 -40 19 0 24 -4 19 -16 -3 -9 -9 -54 -13 -100 l-6 -85 -46 -38 c-75
-62 -121 -88 -214 -122 -51 -18 -86 -36 -84 -43 4 -12 184 -10 272 4 52 8 57
6 86 -47 11 -20 9 -25 -16 -45 -252 -206 -723 -258 -1080 -119 -82 31 -214
108 -273 158 l-34 28 49 50 c26 28 62 68 79 90 l31 40 49 -23 c27 -12 78 -29
114 -37 130 -29 154 -13 68 45 -53 36 -136 128 -164 181 -11 22 -15 62 -15
152 0 67 0 125 0 130 1 4 10 7 21 7 18 0 20 -7 22 -77z m1205 -512 c9 -15 8
-23 -3 -40 -20 -28 -30 -27 -51 5 -16 25 -16 27 2 40 25 19 38 18 52 -5z
m-584 -748 c3 -49 2 -160 -1 -248 l-7 -160 -45 0 -45 0 -11 85 c-6 47 -14 158
-18 248 l-8 162 65 0 64 0 6 -87z m-5 -520 c15 -27 -3 -63 -31 -63 -13 0 -28
5 -35 12 -13 13 -16 50 -5 61 13 14 62 7 71 -10z"/>
<path d="M2006 4790 c14 -75 80 -175 148 -222 22 -16 14 -4 -26 39 -49 55 -67
83 -117 193 -10 23 -11 22 -5 -10z"/>
<path d="M4000 4937 c3 -2 23 -10 44 -16 22 -6 35 -6 30 -1 -10 10 -83 27 -74
17z"/>
<path d="M4015 4901 c63 -27 129 -50 133 -46 7 7 -78 41 -118 49 -24 4 -29 3
-15 -3z"/>
<path d="M4420 3065 c0 -5 4 -16 9 -23 6 -11 10 -10 15 4 3 9 4 19 1 22 -3 3
-5 -1 -5 -9 0 -11 -2 -11 -10 1 -5 8 -10 11 -10 5z"/>
<path d="M2380 2999 c0 -5 4 -9 10 -9 28 0 130 -48 196 -92 41 -28 77 -48 80
-45 6 6 -105 87 -151 110 -46 23 -135 47 -135 36z"/>
<path d="M3010 2840 c0 -5 5 -10 11 -10 5 0 7 5 4 10 -3 6 -8 10 -11 10 -2 0
-4 -4 -4 -10z"/>
<path d="M3165 2730 c3 -5 8 -10 11 -10 2 0 4 5 4 10 0 6 -5 10 -11 10 -5 0
-7 -4 -4 -10z"/>
<path d="M4210 2722 c0 -4 37 -13 83 -20 100 -16 261 -56 331 -82 57 -22 70
-24 61 -10 -19 30 -475 139 -475 112z"/>
<path d="M3931 2128 c-24 -12 -46 -30 -49 -40 -2 -10 -8 -18 -13 -18 -18 0 -8
-39 25 -101 l34 -64 49 0 c33 1 61 8 86 24 46 28 42 40 -5 15 -18 -10 -42 -19
-52 -21 -11 -2 -22 -6 -24 -8 -3 -3 -16 8 -29 23 -21 23 -23 23 -14 5 7 -14 8
-23 2 -23 -5 0 -13 9 -16 20 -3 11 -10 20 -15 20 -5 0 -11 14 -15 30 -4 17
-10 30 -15 30 -5 0 -8 9 -7 20 2 26 14 26 22 -1 4 -11 9 -18 12 -16 2 3 0 14
-6 25 -7 13 -7 23 2 32 9 10 9 11 0 6 -7 -4 -13 -3 -13 2 0 12 58 40 98 48 22
4 31 2 35 -11 4 -9 12 -13 19 -9 8 5 9 2 5 -10 -5 -11 -3 -15 5 -10 8 5 9 2 5
-10 -5 -11 -3 -15 5 -10 7 5 9 2 6 -8 -4 -8 -1 -15 7 -15 10 0 10 7 3 26 -24
69 -74 85 -147 49z"/>
<path d="M3960 2115 c-33 -19 -21 -19 21 0 19 8 27 14 19 14 -8 0 -26 -6 -40
-14z"/>
<path d="M3920 2046 c0 -7 9 -16 20 -19 11 -3 20 -4 20 -3 0 1 -9 9 -20 19
-15 13 -20 14 -20 3z"/>
<path d="M3965 2051 c-3 -5 -2 -12 3 -15 5 -3 9 1 9 9 0 17 -3 19 -12 6z"/>
<path d="M4043 2029 c-2 -23 3 -25 10 -4 4 8 3 16 -1 19 -4 3 -9 -4 -9 -15z"/>
<path d="M3989 2023 c-13 -16 -12 -17 4 -4 9 7 17 15 17 17 0 8 -8 3 -21 -13z"/>
<path d="M3910 2005 c0 -5 5 -17 10 -25 5 -8 10 -10 10 -5 0 6 -5 17 -10 25
-5 8 -10 11 -10 5z"/>
<path d="M4008 2003 c7 -3 16 -2 19 1 4 3 -2 6 -13 5 -11 0 -14 -3 -6 -6z"/>
<path d="M4020 1950 c-8 -5 -10 -10 -5 -10 6 0 17 5 25 10 8 5 11 10 5 10 -5
0 -17 -5 -25 -10z"/>
<path d="M2823 1970 c0 -25 2 -35 4 -22 2 12 2 32 0 45 -2 12 -4 2 -4 -23z"/>
<path d="M2851 1964 c0 -11 3 -14 6 -6 3 7 2 16 -1 19 -3 4 -6 -2 -5 -13z"/>
</g>
</svg>
